<?xml version="1.0" encoding="UTF-8"?>
<svg width="48px" height="48px" viewBox="0 0 48 48" version="1.1" xmlns="http://www.w3.org/2000/svg" xmlns:xlink="http://www.w3.org/1999/xlink">
    <title>Add hotspot</title>
    <g id="页面-2" stroke="none" stroke-width="1" fill="none" fill-rule="evenodd">
        <g id="icon" transform="translate(-110.000000, -321.000000)" fill="#A572E8" fill-rule="nonzero">
            <path d="M127.665225,362.10075 C126.70507,366.353911 122.737103,369.277069 118.328326,368.979142 C113.919549,368.681215 110.393153,365.251617 110.030473,360.909065 C109.667794,356.566512 112.577682,352.614318 116.877638,351.609282 L116.877638,338.628175 L110.686191,338.628175 L110.686191,322.356026 L127.189383,322.356026 L127.189383,328.253324 L140.250284,328.253324 C140.995988,324.171959 144.525574,321.15468 148.728798,321.005437 L149.049235,321.000007 C153.570357,320.994579 157.383831,324.318393 157.933137,328.743198 C158.482442,333.168003 155.594625,337.300601 151.205652,338.370532 L151.204277,352.051342 L157.300831,352.051342 L157.300831,368.323491 L140.79764,368.323491 L140.79764,362.099394 L127.6666,362.099394 L127.665225,362.10075 Z M118.937787,355.442729 C117.217981,355.442532 115.62873,356.34708 114.768769,357.815592 C113.908809,359.284103 113.908809,361.093441 114.768769,362.561952 C115.62873,364.030464 117.217981,364.935012 118.937787,364.934816 C121.595954,364.934512 123.750661,362.809725 123.750661,360.188772 C123.750661,357.567819 121.595954,355.443032 118.937787,355.442729 Z M153.175033,356.119379 L144.923437,356.119379 L144.923437,364.255453 L153.175033,364.255453 L153.175033,356.119379 Z M140.477203,332.321361 L127.189383,332.321361 L127.189383,338.628175 L121.003436,338.628175 L121.003436,351.610638 C124.245142,352.372224 126.789594,354.84605 127.607464,358.031356 L140.79764,358.031356 L140.79764,352.051342 L147.078479,352.051342 L147.078479,338.413925 C143.923692,337.708311 141.400177,335.379784 140.477203,332.322717 L140.477203,332.321361 Z M149.049235,325.068051 C146.390851,325.068051 144.235804,327.192927 144.235804,329.814094 C144.235804,332.435261 146.390851,334.560137 149.049235,334.560137 C151.70762,334.560137 153.862666,332.435261 153.862666,329.814094 C153.862666,327.192927 151.70762,325.068051 149.049235,325.068051 Z M123.063585,326.424063 L114.811989,326.424063 L114.811989,334.560137 L123.063585,334.560137 L123.063585,326.424063 Z" id="形状"></path>
        </g>
    </g>
</svg>