<?xml version="1.0" encoding="UTF-8"?>
<svg width="484px" height="382px" viewBox="0 0 484 382" version="1.1" xmlns="http://www.w3.org/2000/svg" xmlns:xlink="http://www.w3.org/1999/xlink">
    <title>隐私保护</title>
    <defs>
        <rect id="path-1" x="0" y="0" width="484" height="382"></rect>
    </defs>
    <g id="页面-3" stroke="none" stroke-width="1" fill="none" fill-rule="evenodd">
        <g id="保护隐私" transform="translate(-109.000000, -495.000000)">
            <g id="编组-6" transform="translate(109.000000, 495.000000)">
                <mask id="mask-2" fill="white">
                    <use xlink:href="#path-1"></use>
                </mask>
                <g id="蒙版"></g>
                <g mask="url(#mask-2)">
                    <g transform="translate(0.000000, 4.921412)">
                        <g id="编组" transform="translate(7.093621, -0.000000)">
                            <line x1="0" y1="0" x2="17.1789191" y2="15.7822589" id="路径-3" stroke="#367DF3" stroke-width="3"></line>
                            <line x1="0" y1="0" x2="17.1789191" y2="15.7822589" id="路径-3" stroke="#367DF3" stroke-width="3" transform="translate(8.589460, 7.891129) scale(-1, 1) translate(-8.589460, -7.891129) "></line>
                            <path d="M42.7734978,1.5 L42.7734978,12.0162237 L30.4480492,12.0162237 L30.4480492,1.5 L42.7734978,1.5 Z" id="路径-4" stroke="#367DF3" stroke-width="3"></path>
                            <rect id="矩形" fill="#367DF3" x="52.9063789" y="5.07858781" width="18" height="3"></rect>
                        </g>
                        <g id="编组-3" transform="translate(0.000000, 24.576699)">
                            <polygon id="路径-13" fill="#367DF3" points="43.7043946 37.408812 163.416457 37.408812 157.860346 118.268934 112.157837 166.419136 48.5926288 127.216431"></polygon>
                            <path d="M233.454304,1.51907895 L227.086425,186.970236 L8.53749703,189.454354 L1.55692113,4.35120391 L233.454304,1.51907895 Z" id="路径-5" stroke="#979797" stroke-width="3"></path>
                            <path d="M175.122063,30.8241877 L170.920232,112.209723 L125.882037,159.101948 L61.2212634,120.452783 L56.8132563,30.8241877 L175.122063,30.8241877 Z" id="路径-6" stroke="#979797" stroke-width="3" fill="#1A1A1A"></path>
                            <path d="M158.262852,42.0732252 L155.898201,107.625649 L126.191032,135.366707 L77.6549284,109.53802 L73.8269957,45.4639583 L158.262852,42.0732252 Z" id="路径-7" stroke="#979797" stroke-width="3"></path>
                            <line x1="96.7047875" y1="105.952382" x2="145.687485" y2="49.0313148" id="路径-8" stroke="#979797" stroke-width="3"></line>
                            <line x1="116.675169" y1="110.861238" x2="147.966811" y2="78.4156697" id="路径-9" stroke="#979797" stroke-width="3"></line>
                            <line x1="60.7859922" y1="120.624215" x2="78.0319649" y2="109.147741" id="路径-10" stroke="#979797" stroke-width="3"></line>
                            <line x1="126.203384" y1="135.081578" x2="126.203384" y2="158.648252" id="路径-11" stroke="#979797" stroke-width="3"></line>
                            <line x1="155.77632" y1="107.333207" x2="171.056593" y2="112.199671" id="路径-12" stroke="#979797" stroke-width="3"></line>
                            <line x1="29.9506596" y1="152.109225" x2="38.8913442" y2="139.045786" id="路径-14" stroke="#979797" stroke-width="3"></line>
                        </g>
                        <g id="编组-4" transform="translate(28.234107, 48.734223)">
                            <path d="M234.448366,134.490728 L177.217055,132.453726 C118.033059,138.992317 76.923692,150.445521 53.8889526,166.813339 C16.2777432,193.538774 -1.64571478,224.305105 0.118578738,259.112331 C8.27115001,302.749873 36.402202,324.568644 84.5117346,324.568644 C106.116976,324.568644 125.102922,323.224424 137.522924,317.329288 C146.087864,313.263952 150.035793,305.579056 154.644579,299.963672 C161.546452,291.554373 167.081099,285.569947 168.986788,285.569947 C174.010326,285.569947 178.019184,289.853511 180.391367,287.240386 C181.972823,285.498303 181.060391,282.644398 177.654072,278.678671 C180.733156,277.175643 181.959143,274.858465 181.332033,271.727136 C180.704922,268.595807 178.23282,266.095506 173.915725,264.226232 C172.038149,260.683921 170.39517,258.305989 168.986788,257.092436 C167.578407,255.878882 166.001728,255.482548 164.256751,255.903431 C158.613199,251.410443 153.629294,250.114906 149.305035,252.016818 C144.980776,253.918731 137.693762,260.495752 127.443993,271.74788 L126.052628,254.505794 C124.441405,257.772067 122.94291,260.545182 121.557141,262.825139 C120.171373,265.105096 118.121166,268.833444 115.406521,274.010183 C98.8706647,273.708644 87.0990374,272.015217 80.0916387,268.929904 C73.0842401,265.84459 69.0333692,260.57147 67.939026,253.110545 C67.939026,241.414407 73.4632622,231.807701 84.5117346,224.290428 C95.5602069,216.773155 108.391776,213.200509 123.006441,213.572491 L124.785459,239.219805 L154.644579,243.604736 L270.902019,264.226232 C288.194158,290.519498 310.227947,301.587733 337.003388,297.430938 C363.778828,293.274142 379.310634,274.190019 383.598806,240.178569 C385.448454,229.12218 386.538266,218.38513 386.868242,207.967419 C387.198218,197.549708 387.198218,182.578958 386.868242,163.055169 C387.355395,156.454391 388.385426,152.132225 389.958332,150.088671 C391.531239,148.045116 394.814788,145.700631 399.80898,143.055215 L428.663747,128.927815 C431.227016,127.34256 432.50865,125.460539 432.50865,123.281753 C432.50865,121.102967 431.227016,119.556868 428.663747,118.643457 C430.325827,116.608446 430.590543,114.620239 429.457896,112.678837 C428.325249,110.737435 426.76459,109.973377 424.77592,110.386663 C425.997287,108.511164 425.997287,106.816049 424.77592,105.30132 C423.554553,103.786591 421.93482,103.258154 419.916721,103.71601 C420.114979,101.179933 419.608916,99.3253782 418.398532,98.1523446 C415.054384,94.9113925 400.867247,97.1138625 375.837121,104.759755 C374.828366,103.411537 374.979482,102.170047 376.290471,101.035285 C377.60146,99.9005227 380.892916,96.9975349 386.164839,92.3263218 C387.243063,91.2834456 387.998117,89.7966034 388.43,87.8657952 C388.861883,85.9349869 388.341297,84.2398613 386.868242,82.7804183 C386.094883,82.0555336 384.88592,82.0555336 383.241354,82.7804183 C381.596789,83.5053029 379.360321,85.0239647 376.531952,87.3364035 L363.763375,97.0797376 C359.748287,100.997383 356.547999,104.839294 354.162509,108.605471 C351.77702,112.371648 348.713072,118.419623 344.970667,126.749397 C340.644405,139.258639 337.515946,151.360563 335.58529,163.055169 C333.654634,174.749776 331.929352,192.048522 330.409445,214.95141 C329.041995,222.230356 327.334555,225.869829 325.287124,225.869829 C321.013789,225.869829 316.573937,221.206405 311.967566,211.879558 C297.804982,180.512143 285.357618,159.471386 274.625472,148.75729 C263.893326,138.043193 250.500958,133.287673 234.448366,134.490728 Z" id="路径-22" stroke="#8F8F8F" stroke-width="3" fill="#1A1A1A"></path>
                            <path d="M126.758924,245.716559 L125.868373,234.470937 L271.689752,258.10322 L271.689752,270.078765 C200.09083,257.226225 161.472979,250.03479 155.836197,248.504458 C150.199415,246.974127 140.50699,246.044827 126.758924,245.716559 Z" id="路径-25" fill="#1A1A1A"></path>
                            <path d="M168.388765,74.1726627 C162.347945,77.4985051 160.184162,81.6755223 161.897418,86.7037144 C163.610673,91.7319065 168.720305,93.8054437 177.226314,92.9243259 L177.226314,134.490728 C185.131051,151.202787 196.644244,159.558816 211.765893,159.558816 C221.239354,159.558816 228.800178,153.793082 234.448366,142.261612 L234.448366,120.862905 C244.399502,117.422895 250.503496,112.373165 252.760349,105.713716 C255.856886,96.5765557 253.696065,87.4987052 248.47452,64.7599054 C246.697611,57.0218157 242.722226,43.1040413 236.548366,23.0065821 L182.175834,28.8891714 L168.388765,74.1726627 Z" id="路径-16" stroke="#8F8F8F" stroke-width="3" fill="#1A1A1A"></path>
                            <ellipse id="椭圆形" fill="#8F8F8F" transform="translate(232.765893, 50.344365) rotate(-9.000000) translate(-232.765893, -50.344365) " cx="232.765893" cy="50.3443649" rx="3" ry="4"></ellipse>
                            <ellipse id="椭圆形备份" fill="#8F8F8F" transform="translate(202.765893, 58.344365) rotate(-10.000000) translate(-202.765893, -58.344365) " cx="202.765893" cy="58.3443649" rx="3" ry="4"></ellipse>
                            <path d="M167.790487,72.3961865 L161.16562,51.8933202 C156.669842,37.9796321 163.765924,22.9681988 177.371232,17.6111166 C184.169259,14.9343913 189.074957,13.0819489 192.088328,12.0537893 C196.594571,10.5162632 205.802557,7.77395343 219.712286,3.82686008 C227.466977,1.62635684 235.642392,5.57100009 238.745757,13.0105275 C241.11825,18.6979744 238.430949,25.2318467 232.743502,27.6043396 C231.951574,27.9346888 231.124184,28.1725865 230.277729,28.3132809 C221.486351,29.7749239 214.801869,30.9130591 210.224284,31.7276864 C203.480621,32.9277892 195.833287,33.8010339 187.282283,34.3474203 C187.760471,40.7080089 186.26403,45.760249 182.79296,49.5041407 C179.625321,52.9207516 178.643079,59.9223602 179.846234,70.5089664 L179.846246,70.5089651 C180.032853,72.1509355 178.856454,73.6346211 177.215184,73.8272851 C176.513758,73.9096234 175.887867,74.0201455 175.337512,74.1588514 C174.739155,74.3096551 173.950594,74.5642131 172.971829,74.9225252 C170.89733,75.6819833 168.599959,74.6159195 167.840512,72.5414161 C167.822909,72.4933309 167.806231,72.4449121 167.790487,72.3961865 Z" id="路径-15" stroke="#367DF3" stroke-width="3" fill="#367DF3"></path>
                            <line x1="192.088328" y1="50.6430685" x2="199.567041" y2="45.7407071" id="路径-17" stroke="#8F8F8F" stroke-width="3"></line>
                            <line x1="225.571117" y1="35.7315642" x2="232.89093" y2="37.6185584" id="路径-18" stroke="#8F8F8F" stroke-width="3"></line>
                            <path d="M222.258364,53.4406733 L225.359166,65.4608879 C230.64277,64.2084386 233.799107,64.9468684 234.828177,67.6761775 C235.857246,70.4054866 233.762278,72.8504504 228.54327,75.011069" id="路径-19" stroke="#8F8F8F" stroke-width="3"></path>
                            <path d="M209.647336,88.761757 C210.64997,90.4353195 211.87893,91.546117 213.334217,92.0941494 C214.789504,92.6421818 216.317066,92.7998154 217.916902,92.5670502" id="路径-20" stroke="#979797" stroke-width="3" stroke-linecap="round" stroke-linejoin="round"></path>
                            <path d="M234.448366,120.862905 C231.267167,121.649662 228.730371,122.175475 226.837976,122.440346 C225.190822,122.670892 222.724467,122.886737 219.438913,123.087882 L219.438912,123.087865 C218.887649,123.121613 218.468122,123.595859 218.501871,124.147121 C218.511364,124.302178 218.55685,124.452892 218.634725,124.587311 C219.830502,126.651352 221.6005,128.569581 223.944717,130.341997 C226.814619,132.511873 230.315835,134.198678 234.448366,135.402412 L234.448366,120.862905 Z" id="路径-21" stroke="#8F8F8F" stroke-width="3" fill="#8F8F8F" stroke-linejoin="round"></path>
                            <path d="M163.983627,256.008296 C161.610017,256.092493 158.252904,257.657637 153.912287,260.703727 C149.571671,263.749817 144.421656,268.211264 138.462244,274.088068" id="路径-2" stroke="#979797" stroke-width="3"></path>
                            <path d="M144.380585,280.531492 C151.520289,273.594264 157.581642,268.688715 162.564643,265.814843 C167.547645,262.940972 171.207226,262.240119 173.543386,263.712285" id="路径-23" stroke="#979797" stroke-width="3"></path>
                            <path d="M151.222936,286.282956 C157.423389,279.778876 162.475825,275.965182 166.380245,274.841873 C170.284664,273.718565 174.042607,274.997498 177.654072,278.678671" id="路径-24" stroke="#979797" stroke-width="3"></path>
                            <line x1="186.049267" y1="293.490254" x2="198.87119" y2="271.13627" id="路径-27" stroke="#367DF3" stroke-width="3"></line>
                            <path d="M126.052628,262.964268 C132.282063,259.904116 136.828822,257.038846 139.692905,254.368458 C142.556988,251.69807 146.400331,246.74065 151.222936,239.496198 L268.468587,240.797235 L271.689752,288.048097" id="路径-28" stroke="#367DF3" stroke-width="3"></path>
                            <path d="M73.8017978,155.406145 C84.1136441,163.010941 91.180886,171.694349 95.0035234,181.456368 C98.8261608,191.218388 99.8147453,203.044546 97.9692768,216.934842" id="路径-29" stroke="#979797" stroke-width="3"></path>
                            <path d="M272.837128,269.013239 C276.364741,254.76184 281.949577,243.254707 289.591638,234.491839 C297.233699,225.72897 306.173282,220.868401 316.410387,219.910132" id="路径-30" stroke="#979797" stroke-width="3"></path>
                            <line x1="124.785459" y1="239.496198" x2="126.758924" y2="262.964268" id="路径-35" stroke="#979797" stroke-width="3"></line>
                            <path d="M121.779543,212.199859 L134.822537,211.599266 C137.000335,211.498987 138.857362,213.161118 138.998175,215.336672 C139.238851,219.055104 138.608044,222.283989 137.105753,225.023328 C135.099805,228.681058 130.582735,233.211612 123.554544,238.614988 L121.779543,212.199859 Z" id="路径-36" fill="#8F8F8F"></path>
                            <path d="M375.837121,104.759755 C378.913807,109.245081 380.45215,112.707996 380.45215,115.148499 C380.45215,119.37041 378.379347,124.096441 374.233743,129.326594" id="路径-37" stroke="#979797" stroke-width="3"></path>
                            <path d="M389.912555,113.858015 C396.80439,111.010598 402.026559,109.006076 405.579061,107.844451 C409.131562,106.682826 413.932182,105.410017 419.980919,104.026024" id="路径-38" stroke="#979797" stroke-width="3"></path>
                            <line x1="394.53055" y1="121.049244" x2="425.917428" y2="110.589155" id="路径-39" stroke="#979797" stroke-width="3"></line>
                            <line x1="400.016319" y1="129.596972" x2="428.276698" y2="118.852044" id="路径-40" stroke="#979797" stroke-width="3"></line>
                            <path d="M262.862728,240.555148 L264.716442,210.438836 C265.952457,211.125062 268.659353,217.640351 272.837128,229.984701 C275.304697,237.275791 276.458933,250.29159 280.092707,262.063222 C281.771689,267.502294 285.2024,275.575539 290.384841,286.282956 L269.699214,263.772148 L268.468587,240.797235 L262.862728,240.555148 Z" id="路径-41" fill="#8F8F8F"></path>
                            <path d="M157.291948,135.292777 C160.310117,146.24102 162.335915,158.835309 163.376012,173.074373 C164.256041,185.122083 164.704361,202.08606 164.72322,223.964896 L164.72322,223.964896 L164.723202,226.894436 C164.719933,230.706588 164.704113,234.662034 164.675744,238.760774 L164.675744,238.760774 L151.507004,238.760775 C151.86113,214.86318 151.344356,195.566753 149.960792,180.871279 C148.595208,166.366781 145.978059,151.998338 142.109062,137.766003 L142.109062,137.766003 Z" id="路径-42" stroke="#367DF3" stroke-width="3" fill="#367DF3"></path>
                            <path d="M249.775213,135.423834 C252.529879,135.859917 254.632371,136.322371 256.080079,136.820729 C257.808366,137.415673 259.715065,138.456066 261.808601,139.924609 C264.368592,143.443705 265.462158,153.264939 265.462158,169.16882 C265.462158,185.646864 264.984131,209.211002 264.028508,239.861238 L264.028508,239.861238 L253.335987,239.864559 C253.631743,225.074053 253.784509,211.912001 253.794448,200.378401 L253.794131,197.677207 C253.781188,186.103982 253.617815,176.246043 253.304189,168.103388 C252.718038,152.885188 251.527963,141.995427 249.775213,135.423834 Z" id="路径-26" stroke="#367DF3" stroke-width="3" fill="#367DF3"></path>
                        </g>
                        <g id="编组-5" transform="translate(360.259180, 31.389336)">
                            <ellipse id="椭圆形" stroke="#CAA356" stroke-width="8" transform="translate(45.240820, 21.689252) rotate(9.000000) translate(-45.240820, -21.689252) " cx="45.2408203" cy="21.6892518" rx="21" ry="14"></ellipse>
                            <polygon id="路径-31" fill="#CAA356" points="42.6603608 38.1832669 43.509306 86.6793363 59.8633973 85.9420568 59.8633973 73.3760931 50.0531529 74.3335598 50.0531529 67.3919973 56.1268658 65.1759298 55.4152821 57.9662629 48.5180998 57.9662629 48.5180998 38.1832669"></polygon>
                            <line x1="0" y1="83.3738063" x2="8.44408618" y2="76.5510274" id="路径-32" stroke="#CAA356" stroke-width="3"></line>
                            <line x1="83.2939405" y1="17.3448868" x2="94.9991781" y2="6.44034315" id="路径-33" stroke="#CAA356" stroke-width="3"></line>
                            <line x1="93.6112236" y1="55.8927789" x2="118.82017" y2="69.7651032" id="路径-34" stroke="#CAA356" stroke-width="3"></line>
                        </g>
                    </g>
                </g>
            </g>
        </g>
    </g>
</svg>