<?xml version="1.0" encoding="UTF-8"?>
<svg width="48px" height="48px" viewBox="0 0 48 48" version="1.1" xmlns="http://www.w3.org/2000/svg" xmlns:xlink="http://www.w3.org/1999/xlink">
    <title>Helium explorer</title>
    <g id="页面-2" stroke="none" stroke-width="1" fill="none" fill-rule="evenodd">
        <g id="icon" transform="translate(-284.000000, -319.000000)" fill="#367DF3" fill-rule="nonzero">
            <path d="M308,319 C321.255385,319 332,329.744615 332,343 C332,356.255385 321.255385,367 308,367 C294.744615,367 284,356.255385 284,343 C284,329.744615 294.744615,319 308,319 Z M306.153846,344.846154 L298.808615,344.847385 C298.860308,346.028923 298.96,347.178461 299.104,348.289846 L299.218462,349.114462 L299.361231,349.994462 C300.500923,356.507692 303.153231,361.402462 306.155077,362.859692 L306.153846,344.846154 Z M317.191385,344.847385 L309.846154,344.846154 L309.846154,362.859692 C312.780308,361.433231 315.380923,356.723077 316.56,350.426462 L316.638769,349.994462 L316.781538,349.115692 C316.993535,347.701171 317.130342,346.2764 317.191385,344.847385 L317.191385,344.847385 Z M295.112615,344.847385 L287.774769,344.847385 C288.446769,352.293538 293.139692,358.582769 299.665231,361.524308 C298.388923,359.546462 297.336615,357.115692 296.563692,354.368615 L296.388923,353.728615 L296.185846,352.911385 L295.998769,352.076923 C295.499219,349.696514 295.202769,347.277975 295.112615,344.847385 L295.112615,344.847385 Z M328.225231,344.847385 L320.886154,344.847385 C320.804673,347.018948 320.560294,349.181331 320.155077,351.316308 L320,352.076923 L319.812923,352.911385 L319.609846,353.729846 C318.822154,356.737846 317.708308,359.395077 316.333538,361.524308 C322.859077,358.582769 327.552,352.293538 328.222769,344.847385 L328.225231,344.847385 Z M299.665231,324.474462 L299.500308,324.549538 C293.058462,327.523077 288.440615,333.769231 287.774769,341.153846 L295.112615,341.153846 C295.201231,338.901538 295.451077,336.729231 295.843692,334.683692 L295.998769,333.923077 L296.185846,333.088615 L296.388923,332.270154 C297.176615,329.262154 298.290462,326.604923 299.665231,324.475692 L299.665231,324.474462 Z M306.153846,323.140308 C303.228308,324.560615 300.633846,329.249846 299.449846,335.520615 L299.361231,336.005538 L299.218462,336.884308 C299.006424,338.299236 298.869617,339.724419 298.808615,341.153846 L306.153846,341.153846 L306.153846,323.140308 Z M316.334769,324.475692 L316.482462,324.709538 C317.688615,326.638154 318.688,328.977846 319.430154,331.606769 L319.611077,332.271385 L319.814154,333.088615 L320.001231,333.923077 C320.483692,336.187692 320.787692,338.619692 320.887385,341.153846 L328.225231,341.153846 C327.554462,333.706462 322.861538,327.417231 316.334769,324.476923 L316.334769,324.475692 Z M309.846154,323.140308 L309.846154,341.153846 L317.191385,341.153846 C317.140309,339.969629 317.037648,338.7882 316.883692,337.612923 L316.781538,336.884308 L316.638769,336.005538 C315.499077,329.493538 312.848,324.598769 309.847385,323.140308 L309.846154,323.140308 Z" id="形状"></path>
        </g>
    </g>
</svg>