<?xml version="1.0" encoding="UTF-8"?>
<svg width="42px" height="42px" viewBox="0 0 42 42" version="1.1" xmlns="http://www.w3.org/2000/svg" xmlns:xlink="http://www.w3.org/1999/xlink">
    <title>Enable PIN</title>
    <g id="页面-2" stroke="none" stroke-width="1" fill="none" fill-rule="evenodd">
        <g id="icon" transform="translate(-423.000000, -157.000000)" fill="#367DF3" fill-rule="nonzero">
            <g id="编组-3" transform="translate(425.000000, 157.000000)">
                <path d="M35.3515151,4.974359 L19.9212121,0.153846166 C19.3454545,-0.0512820553 18.6545455,-0.0512820553 18.0787879,0.153846166 L2.64848487,4.974359 C1.03636364,5.48717953 0,6.82051285 0,8.35897438 L0,25.0769231 C0,34.4102564 8.52121214,42 19,42 C29.4787879,42 38,34.4102564 38,25.0769231 L38,8.35897438 C38,6.82051285 36.9636364,5.3846154 35.3515151,4.974359 Z M34.5454545,25.0769231 C34.5454545,32.6666667 27.5212121,38.9230769 19,38.9230769 C10.4787879,38.9230769 3.45454545,32.6666667 3.45454545,25.0769231 L3.45454545,8.35897438 C3.45454545,8.15384616 3.56969695,7.94871799 3.8,7.84615386 L19,3.12820516 L34.2,7.84615386 C34.430303,7.94871794 34.5454545,8.15384616 34.5454545,8.35897438 L34.5454545,25.0769231 Z" id="形状"></path>
                <path d="M25.5916667,15.7435898 L16.3416667,25.0769231 L12.2305556,21.7948718 C11.6138889,21.2820513 10.5861111,21.3846154 10.0722222,22 C9.55833333,22.6153846 9.66111114,23.6410256 10.2777778,24.1538462 L15.4166667,28.2564103 C15.725,28.4615385 16.0333333,28.5641026 16.3416667,28.5641026 C16.7527778,28.5641026 17.1638889,28.4615385 17.4722222,28.1538462 L27.75,17.8974359 C28.3666667,17.2820513 28.3666667,16.3589744 27.75,15.7435898 C27.2361111,15.2307692 26.2083333,15.2307692 25.5916667,15.7435898 L25.5916667,15.7435898 Z" id="路径"></path>
            </g>
        </g>
    </g>
</svg>