<?xml version="1.0" encoding="UTF-8"?>
<svg width="58px" height="46px" viewBox="0 0 58 46" version="1.1" xmlns="http://www.w3.org/2000/svg" xmlns:xlink="http://www.w3.org/1999/xlink">
    <title>密码隐藏</title>
    <g id="页面-3" stroke="none" stroke-width="1" fill="none" fill-rule="evenodd">
        <g id="icon" transform="translate(-345.000000, -52.000000)" fill="#367DF3" fill-rule="nonzero">
            <path d="M346.559986,62.0013957 C346.727985,62.0009795 346.887296,62.0757833 346.993975,62.2051737 C347.360766,62.6532062 347.667358,63.0147027 347.916552,63.2938507 C354.325592,70.4288718 363.636759,74.9203621 374.0007,74.9203621 C384.681033,74.9203621 394.244194,70.1497239 400.664433,62.6308743 C400.762431,62.5136322 400.877228,62.3768497 401.004625,62.2205269 C401.154184,62.0376694 401.402895,61.9682883 401.625923,62.0472084 C401.84895,62.1261285 401.998137,62.3363092 401.9986,62.5722533 L401.9986,63.2142935 L402,63.758632 L402,67.1446964 C402,67.2930108 401.940309,67.4351291 401.834804,67.5396907 C399.852853,69.5341793 397.661968,71.3108899 395.299768,72.8393142 L400.712032,79.2680911 C400.910088,79.504438 400.878767,79.8560426 400.642034,80.0538925 L398.283093,82.0274684 C398.046401,82.2252629 397.693771,82.1946648 397.494913,81.9590772 L391.60106,74.9552555 C388.578017,76.473039 385.369289,77.591156 382.056099,78.2813031 L384.948426,86.1993342 C384.999364,86.3385157 384.992723,86.4921753 384.929966,86.6264728 C384.867209,86.7607702 384.753484,86.864691 384.613835,86.9153486 L381.720107,87.9649449 C381.580504,88.0157287 381.426379,88.0091079 381.291675,87.9465405 C381.156971,87.8839731 381.052736,87.7705905 381.001925,87.6313631 L377.822604,78.9233434 C374.964414,79.1993587 372.084613,79.1651955 369.233819,78.8214544 L366.0195,87.6313631 C365.968967,87.7708453 365.864848,87.8845517 365.730113,87.9473954 C365.595378,88.010239 365.4411,88.0170554 365.301317,87.9663406 L362.40759,86.9153486 C362.267685,86.8649689 362.153635,86.7611637 362.090601,86.6268355 C362.027567,86.4925072 362.02073,86.3386949 362.071598,86.1993342 L365.036724,78.0803166 C362.044807,77.382585 359.146295,76.3340618 356.40174,74.9566512 L350.507887,81.9590772 C350.412544,82.0728414 350.275731,82.1441279 350.127613,82.1572193 C349.979496,82.1703106 349.832238,82.1241316 349.718307,82.0288641 L347.357966,80.0524967 C347.121233,79.8546468 347.089912,79.5030423 347.287968,79.2666954 L352.700233,72.8379184 C350.814053,71.6183188 349.036131,70.2398718 347.385965,68.717695 C347.100372,68.4539002 346.692983,68.0616973 346.165196,67.5396907 C346.059691,67.4351291 346,67.2930108 346,67.1446964 L346,62.5582958 C346,62.2512331 346.251994,62 346.559986,62 L346.559986,62.0013957 Z" id="路径"></path>
        </g>
    </g>
</svg>