<?xml version="1.0" encoding="UTF-8"?>
<svg width="48px" height="48px" viewBox="0 0 48 48" version="1.1" xmlns="http://www.w3.org/2000/svg" xmlns:xlink="http://www.w3.org/1999/xlink">
    <title>Hink helium wallet</title>
    <g id="页面-2" stroke="none" stroke-width="1" fill="none" fill-rule="evenodd">
        <g id="icon" transform="translate(-31.000000, -321.000000)" fill="#70CE6C" fill-rule="nonzero">
            <path d="M72.1428571,321 C75.9299526,321 79,324.070047 79,327.857143 L79,362.142857 C79,365.929953 75.9299526,369 72.1428571,369 L37.8571429,369 C34.0700474,369 31,365.929953 31,362.142857 L31,327.857143 C31,324.070047 34.0700474,321 37.8571429,321 L72.1428571,321 Z M54.4285714,355.285714 C50.7956618,355.285623 47.5570811,352.996226 46.3451429,349.571429 L34.4285714,349.571429 L34.4285714,362.142857 C34.4285714,363.958352 35.8436325,365.459205 37.656,365.565714 L37.8571429,365.571429 L72.1428571,365.571429 C73.9583515,365.571429 75.4592053,364.156367 75.5657143,362.344 L75.5714286,362.142857 L75.5714286,349.571429 L62.512,349.571429 C61.3000617,352.996226 58.0614811,355.285623 54.4285714,355.285714 L54.4285714,355.285714 Z M49.3165714,346.142857 C49.0987218,348.104339 50.0225405,350.01748 51.6941422,351.066582 C53.3657439,352.115685 55.490256,352.115685 57.1618578,351.066582 C58.8334595,350.01748 59.7572782,348.104339 59.5394286,346.142857 L75.5714286,346.142857 L75.5714286,337 L34.4285714,337 L34.4285714,346.142857 L49.3165714,346.142857 L49.3165714,346.142857 Z M72.1428571,324.428571 L37.8571429,324.428571 C36.0416485,324.42847 34.5407947,325.843633 34.4342857,327.656 L34.4285714,327.857143 L34.4285714,333.571429 L75.5714286,333.571429 L75.5714286,327.857143 C75.5714286,326.041648 74.1563675,324.540795 72.344,324.434286 L72.1428571,324.428571 Z" id="形状"></path>
        </g>
    </g>
</svg>