<?xml version="1.0" encoding="UTF-8"?>
<svg width="70px" height="70px" viewBox="0 0 70 70" version="1.1" xmlns="http://www.w3.org/2000/svg" xmlns:xlink="http://www.w3.org/1999/xlink">
    <title>home</title>
    <g id="页面-2" stroke="none" stroke-width="1" fill="none" fill-rule="evenodd">
        <g id="icon" transform="translate(-32.000000, -139.000000)">
            <g id="首页2" transform="translate(37.000000, 141.000000)">
                <path d="M30.0001039,2 C31.1827506,2 32.3636918,2.38234134 33.3716011,3.13917701 L33.3716011,3.13917701 L55.5678734,19.8091481 C57.0984074,20.9586546 58,22.8201735 58,24.7777263 L58,24.7777263 L58,57.8938357 C57.9997091,59.5865373 57.3415003,61.1238311 56.2704861,62.2361997 C55.2264501,63.3205483 53.7873065,64 52.195528,64 L52.195528,64 L7.80293523,64 C6.21156018,64 4.77270856,63.3203834 3.72890361,62.2360613 C2.65809168,61.1236838 2,59.5864961 2,57.8941794 L2,57.8941794 L2,24.7777263 C2,22.8197682 2.90127906,20.9582796 4.43210249,19.8091662 L4.43210249,19.8091662 L26.6281371,3.13937357 C27.636602,2.38224862 28.8176177,2 30.0001039,2 Z" id="形状" stroke="#767D85" stroke-width="4"  fill="currentColor"></path>
                <rect id="矩形" fill="#767D85" x="27" y="36" width="6" height="16" rx="3"></rect>
            </g>
        </g>
    </g>
</svg>