<?xml version="1.0" encoding="UTF-8"?>
<svg width="42px" height="42px" viewBox="0 0 42 42" version="1.1" xmlns="http://www.w3.org/2000/svg" xmlns:xlink="http://www.w3.org/1999/xlink">
    <title>邮箱</title>
    <g id="页面-2" stroke="none" stroke-width="1" fill="none" fill-rule="evenodd">
        <g id="icon" transform="translate(-37.000000, -51.000000)" fill="#367DF3" fill-rule="nonzero">
            <path d="M71,54 C75.418278,54 79,57.581722 79,62 L79,82 C79,86.418278 75.418278,90 71,90 L45,90 C40.581722,90 37,86.418278 37,82 L37,62 C37,57.581722 40.581722,54 45,54 L71,54 Z M76,65.428 L61.44,72.362 C59.2637795,73.3984919 56.7362205,73.3984919 54.56,72.362 L40,65.428 L40,82 C40,84.6769176 42.1086046,86.8788217 44.783,86.995 L45,87 L71,87 C73.6769176,87 75.8788217,84.8913954 75.995,82.217 L76,82 L76,65.428 Z M71,57 L45,57 C42.3230824,57.0001547 40.1211783,59.1086046 40.005,61.783 L40,62.106 L55.85,69.654 C57.1264027,70.2615725 58.6003456,70.3004465 59.907,69.761 L60.15,69.654 L76,62.105 L76,62 C76,59.3230824 73.8913954,57.1211783 71.217,57.005 L71,57 Z" id="形状"></path>
        </g>
    </g>
</svg>