<?xml version="1.0" encoding="UTF-8"?>
<svg width="482px" height="370px" viewBox="0 0 482 370" version="1.1" xmlns="http://www.w3.org/2000/svg" xmlns:xlink="http://www.w3.org/1999/xlink">
    <title>编组 4</title>
    <defs>
        <rect id="path-1" x="0" y="0" width="482" height="370"></rect>
    </defs>
    <g id="页面-3" stroke="none" stroke-width="1" fill="none" fill-rule="evenodd">
        <g id="未搜索到相关内容" transform="translate(-299.000000, -540.000000)">
            <g id="编组-4" transform="translate(299.000000, 540.000000)">
                <mask id="mask-2" fill="white">
                    <use xlink:href="#path-1"></use>
                </mask>
                <g id="蒙版"></g>
                <g mask="url(#mask-2)">
                    <g transform="translate(-0.830971, -25.335516)">
                        <path d="M53.2466573,233.133984 C81.3238261,180.402612 103.872206,154.420025 120.891796,155.186221 C137.911387,155.952418 179.450395,172.331858 245.508823,204.324541 C305.31433,169.567843 343.189251,153.188403 359.133585,155.186221 C377.59182,157.072544 396.908463,177.790669 417.083513,217.340595 L374.640306,347.290172 L381.118379,376.047722 L149.39221,376.047722 L136.328409,299.592386 L53.2466573,233.133984 Z" id="路径-61" fill="#367DF3"></path>
                        <g id="编组-2" stroke-width="1" fill="none" transform="translate(181.261655, 79.032044)">
                            <path d="M6.9208293,52.218345 C23.0144548,23.1298937 35.5780525,6.48559091 44.6116224,2.28543674 C53.6451922,-1.91471743 59.9685274,-0.325618699 63.5816279,7.05273293 C74.1107635,1.6841541 85.2457087,0.09505537 96.9864633,2.28543674 C108.727218,4.47581812 111.725893,10.2865705 105.982489,19.7176938 C114.492415,18.3444167 120.094834,20.0136593 122.789747,24.7254215 C125.396266,29.282636 126.854102,40.831428 127.163256,59.3717976 L6.9208293,52.218345 Z" id="路径-65" fill="#367DF3"></path>
                            <ellipse id="椭圆形" fill="#1A1A1A" transform="translate(63.581628, 99.959907) rotate(-9.000000) translate(-63.581628, -99.959907) " cx="63.5816279" cy="99.9599074" rx="54" ry="65.5"></ellipse>
                            <polyline id="路径-62" stroke="#979797" stroke-width="3" points="44.6116224 72.709547 58.4211213 61.0094614 72.622473 72.709547"></polyline>
                            <path d="M58.6170477,60.5158398 C56.0195491,72.2887247 55.2323425,81.9279966 56.2554277,89.4336554 C57.2785129,96.9393142 60.4782344,102.229253 65.8545922,105.303473" id="路径-63" stroke="#979797" stroke-width="3"></path>
                            <path d="M46.2181022,118.86216 C47.4711461,117.648503 48.907742,116.799698 50.5278899,116.315747 C52.1480379,115.831796 53.9126682,115.831796 55.8217808,116.315747" id="路径-64" stroke="#979797" stroke-width="3"></path>
                        </g>
                        <g id="编组" stroke-width="1" fill="none" transform="translate(0.000000, 110.183816)">
                            <path d="M186.953538,1.5 C189.726805,1.5 192.184713,1.9962747 194.321329,3.01306497 C198.314889,3.18623389 201.178308,3.46575257 203.542243,4.00866069 C205.693622,4.5027529 207.489493,5.48747073 208.920529,6.97888163 C217.549093,9.70117974 222.656467,12.811037 224.612221,16.9739666 C226.508932,21.0112205 226.129088,25.4017509 223.629074,30.1418584 C223.493728,30.3984792 223.355718,30.6493931 223.21594,30.8945391 C223.373868,31.132112 223.524722,31.3710914 223.668487,31.6114925 C225.998309,35.5073709 227.118233,40.8668284 227.118233,47.659594 C227.118233,54.4918962 225.312572,60.7235026 221.695833,66.3528051 L221.695833,66.3528051 L219.510266,69.7545488 L223.385648,68.6013008 C224.610757,68.2367291 225.637795,68.1101608 226.463509,68.317091 C227.077106,68.4708629 227.530123,68.8466044 227.838066,69.4241114 C228.731989,71.1005484 228.127922,73.6050786 226.579464,76.8356628 C224.656035,81.4200409 220.504976,85.6999489 214.197577,89.8182219 C207.866097,93.9522178 202.858478,96.2301152 199.141602,96.5170392 C195.938193,96.9127317 193.510743,97.9471791 191.749771,99.5489297 C190.112702,101.037979 188.056639,104.003125 185.628616,108.50039 C167.774739,142.136374 153.775193,166.940218 143.627338,182.910339 C133.482307,198.876016 118.058589,220.377431 97.3577109,247.415306 C82.9943229,264.464195 69.1783212,275.311195 55.8541193,279.863014 C42.7652291,284.334444 30.1946987,282.643005 18.1390691,274.818948 C12.1570937,270.936668 7.78309785,265.965915 5.03095646,259.894989 C2.25267184,253.766394 1.12506171,246.531125 1.6085727,238.197627 C2.59771109,221.149446 10.2947057,199.599427 24.6164563,173.529069 L24.6164563,173.529069 L53.8138508,124.919031 C61.094873,128.620533 66.3486682,131.523577 69.5721521,133.633259 C72.9476144,135.842406 76.7673561,138.934961 81.036163,142.904613 C81.4454828,143.285248 81.8464602,143.662349 82.2418902,144.032368 C82.5762993,143.596346 82.9120024,143.158078 83.2489993,142.717562 C101.175487,119.284431 113.923501,101.04861 121.499619,88.0143081 C129.135967,74.876385 134.199989,62.8756483 136.712237,52.0212686 C140.712489,38.5020513 146.828834,26.9300118 155.074363,17.3124625 C163.068467,7.98817399 170.714074,3.1586153 178.120878,3.1586153 C181.355262,2.02010787 184.119624,1.5 186.953538,1.5 Z" id="路径-53" stroke="#979797" stroke-width="3" fill="#1A1A1A"></path>
                            <line x1="82.7873074" y1="143.412166" x2="51.0271253" y2="189.408569" id="路径-54" stroke="#979797" stroke-width="3" fill="#1A1A1A"></line>
                            <path d="M156.748538,86.8829298 C159.663353,83.2536896 161.465591,79.5308451 162.155249,75.7143964 C162.844907,71.8979476 162.844907,65.6475263 162.155249,56.9631327 C160.376372,42.1999562 160.830448,32.4315419 163.517478,27.65789 C165.14081,24.7739536 168.033907,21.1682236 172.944228,17.2979498 C174.428277,16.1282356 177.031119,14.3263945 180.752756,11.8924264 C184.108764,9.92300219 185.410269,8.05734248 184.65727,6.29544725 C183.752619,4.17870774 181.482192,3.12085203 177.84599,3.12188013" id="路径-55" stroke="#979797" stroke-width="3"></path>
                            <line x1="184.864257" y1="51.8357205" x2="202.475389" y2="34.5726597" id="路径-56" stroke="#00DAFF" stroke-width="3"></line>
                            <path d="M174.692943,15.9746274 C183.232419,11.1840215 192.259079,10.2629125 201.772924,13.2113004 C211.286768,16.1596884 218.355245,21.9581719 222.978354,30.6067511" id="路径-57" stroke="#979797" stroke-width="3"></path>
                            <path d="M162.311468,63.9714552 C169.3944,74.312911 178.766156,79.8563905 190.426738,80.6018937 C202.08732,81.3473968 211.684835,77.8054667 219.219283,69.9761035" id="路径-58" stroke="#979797" stroke-width="3"></path>
                            <path d="M191.935734,1.8742682 C194.504039,3.15671208 196.259524,4.89646014 197.202191,7.09351238 C197.742217,8.35213875 197.742217,9.95497956 197.202191,11.9020348" id="路径-59" stroke="#979797" stroke-width="3"></path>
                            <path d="M208.562586,6.60252553 C209.558805,7.38912814 210.310498,9.03041735 210.817664,11.5263932 C211.145226,13.1384595 210.897427,14.6965977 210.074267,16.2008076" id="路径-60" stroke="#979797" stroke-width="3"></path>
                            <circle id="椭圆形" stroke="#979797" stroke-width="3" cx="192.830971" cy="46.1517" r="26.5"></circle>
                        </g>
                        <g id="编组备份" stroke-width="1" fill="none" transform="translate(365.573099, 252.086212) scale(-1, 1) translate(-365.573099, -252.086212) translate(250.422692, 110.183816)">
                            <path d="M186.953538,1.5 C189.726805,1.5 192.184713,1.9962747 194.321329,3.01306497 C198.314889,3.18623389 201.178308,3.46575257 203.542243,4.00866069 C205.693622,4.5027529 207.489493,5.48747073 208.920529,6.97888163 C219.568091,12.0037588 225.806138,16.374731 227.804015,20.6273215 C228.705431,22.5460354 229.001409,24.4639647 228.665384,26.3843004 C228.316911,28.3757767 227.303981,30.3548896 225.674089,32.3416387 C225.455928,32.6075653 225.23574,32.8626249 225.013613,33.1071503 C225.197255,33.3976308 225.353562,33.6765191 225.482359,33.9439279 C226.618099,36.3019613 227.118233,40.88908 227.118233,47.659594 C227.118233,54.4918962 225.312572,60.7235026 221.695833,66.3528051 L221.695833,66.3528051 L219.510266,69.7545488 L223.385648,68.6013008 C224.610757,68.2367291 225.637795,68.1101608 226.463509,68.317091 C227.077106,68.4708629 227.530123,68.8466044 227.838066,69.4241114 C228.731989,71.1005484 228.127922,73.6050786 226.579464,76.8356628 C224.656035,81.4200409 220.504976,85.6999489 214.197577,89.8182219 C207.866097,93.9522178 202.858478,96.2301152 199.141602,96.5170392 C195.938193,96.9127317 193.510743,97.9471791 191.749771,99.5489297 C190.112702,101.037979 188.056639,104.003125 185.628616,108.50039 C167.774739,142.136374 153.775193,166.940218 143.627338,182.910339 C133.482307,198.876016 118.058589,220.377431 97.3577109,247.415306 C82.9943229,264.464195 69.1783212,275.311195 55.8541193,279.863014 C42.7652291,284.334444 30.1946987,282.643005 18.1390691,274.818948 C12.1570937,270.936668 7.78309785,265.965915 5.03095646,259.894989 C2.25267184,253.766394 1.12506171,246.531125 1.6085727,238.197627 C2.5976272,221.150892 10.2934002,199.603083 24.6128126,173.535702 L24.6128126,173.535702 L64.1946533,109.11927 C71.4821802,112.823813 76.7401551,115.728978 79.9654884,117.83987 C83.3409507,120.049017 87.1606924,123.141572 91.4294993,127.111224 C91.816412,127.471022 92.1958707,127.827663 92.5693948,128.179723 C92.9107171,127.783428 93.2517046,127.385532 93.5923571,126.986035 C104.600741,114.076037 113.902394,101.084923 121.499619,88.0143081 C129.135967,74.876385 134.199989,62.8756483 136.712237,52.0212686 C140.712489,38.5020513 146.828834,26.9300118 155.074363,17.3124625 C163.068467,7.98817399 170.714074,3.1586153 178.120878,3.1586153 C181.355262,2.02010787 184.119624,1.5 186.953538,1.5 Z" id="路径-53" stroke="#979797" stroke-width="3" fill="#1A1A1A"></path>
                            <circle id="椭圆形" stroke="#979797" stroke-width="3" cx="192.830971" cy="46.1517" r="26.5"></circle>
                            <line x1="92.8126665" y1="127.241952" x2="51.0271253" y2="189.408569" id="路径-54" stroke="#979797" stroke-width="3"></line>
                            <path d="M156.748538,86.8829298 C159.663353,83.2536896 161.465591,79.5308451 162.155249,75.7143964 C162.844907,71.8979476 162.844907,65.6475263 162.155249,56.9631327 C160.376372,42.1999562 160.830448,32.4315419 163.517478,27.65789 C165.14081,24.7739536 168.033907,21.1682236 172.944228,17.2979498 C174.428277,16.1282356 177.031119,14.3263945 180.752756,11.8924264 C184.108764,9.92300219 185.410269,8.05734248 184.65727,6.29544725 C183.752619,4.17870774 181.482192,3.12085203 177.84599,3.12188013" id="路径-55" stroke="#979797" stroke-width="3"></path>
                            <line x1="184.864257" y1="51.8357205" x2="202.475389" y2="34.5726597" id="路径-56" stroke="#00DAFF" stroke-width="3" transform="translate(193.669823, 43.204190) scale(-1, 1) translate(-193.669823, -43.204190) "></line>
                            <path d="M174.692943,15.9746274 C183.232419,11.1840215 192.259079,10.2629125 201.772924,13.2113004 C212.402793,16.4324032 220.46548,23.7914152 225.960986,35.2883363" id="路径-57" stroke="#979797" stroke-width="3"></path>
                            <path d="M162.311468,63.9714552 C169.3944,74.312911 178.766156,79.8563905 190.426738,80.6018937 C202.08732,81.3473968 211.684835,77.8054667 219.219283,69.9761035" id="路径-58" stroke="#979797" stroke-width="3"></path>
                            <path d="M191.935734,1.8742682 C194.504039,3.15671208 196.259524,4.89646014 197.202191,7.09351238 C197.742217,8.35213875 197.742217,9.95497956 197.202191,11.9020348" id="路径-59" stroke="#979797" stroke-width="3"></path>
                            <path d="M208.562586,6.60252553 C209.558805,7.38912814 210.310498,9.03041735 210.817664,11.5263932 C211.145226,13.1384595 210.897427,14.6965977 210.074267,16.2008076" id="路径-60" stroke="#979797" stroke-width="3"></path>
                        </g>
                        <g id="编组-3" stroke-width="1" fill="none" transform="translate(395.934136, 81.587707) rotate(-330.000000) translate(-395.934136, -81.587707) translate(312.185620, 35.730566)">
                            <path d="M50.2601703,4.53507627 L57.0803308,15.6091867 C79.6693401,10.802116 92.7455789,13.5673662 96.3090471,23.9049372 C100.587641,36.5650185 91.9060208,44.2146057 70.2641881,46.8536989 L70.2641881,74.2499369 L81.0301324,74.2499369 L81.0301324,55.0446554 C101.869819,50.6070665 111.368567,40.2271604 109.526375,23.9049372 C107.185149,3.53612495 87.4297474,-2.92049537 50.2601703,4.53507627 Z" id="路径-69" fill="#979797"></path>
                            <polygon id="路径-70" fill="#979797" points="69.849765 78.9536338 80.0054879 78.9536338 80.9595778 91.7142822 69.849765 90.7383824"></polygon>
                            <line x1="124.671779" y1="44.3527055" x2="136.865197" y2="30.334761" id="路径-71" stroke="#979797" stroke-width="3"></line>
                            <line x1="140.912603" y1="64.8729852" x2="167.49703" y2="54.1241647" id="路径-72" stroke="#979797" stroke-width="3"></line>
                            <line x1="0" y1="46.0557654" x2="19.5165706" y2="64.8729852" id="路径-73" stroke="#979797" stroke-width="3"></line>
                        </g>
                    </g>
                </g>
            </g>
        </g>
    </g>
</svg>