<?xml version="1.0" encoding="UTF-8"?>
<svg width="58px" height="46px" viewBox="0 0 58 46" version="1.1" xmlns="http://www.w3.org/2000/svg" xmlns:xlink="http://www.w3.org/1999/xlink">
    <title>密码可见</title>
    <g id="页面-3" stroke="none" stroke-width="1" fill="none" fill-rule="evenodd">
        <g id="icon" transform="translate(-260.000000, -47.000000)" fill="#367DF3" fill-rule="nonzero">
            <path d="M288.999113,47 C294.397754,47 299.34091,49.0537647 303.158117,52.4577647 L303.637788,52.8920588 C306.372042,55.4004118 310.68773,59.8827059 316.582165,66.3402941 C318.394753,68.3257094 318.478984,71.3519452 316.779676,73.4364706 L316.584852,73.6624118 L314.457911,75.9827059 C309.284997,81.5974118 305.500037,85.4668236 303.098998,87.5922941 C299.289853,90.9665294 294.370882,93 288.999113,93 C283.595097,93 278.64791,90.9421765 274.829359,87.5314118 L274.351033,87.0984706 C271.619465,84.5901176 267.309152,80.1118824 261.418748,73.6637647 C259.603859,71.6768309 259.520739,68.6469693 261.223924,66.5621765 L261.420091,66.3362353 L264.046857,63.4761176 C268.934925,58.1915294 272.529092,54.5237058 274.826672,52.4699412 C278.645223,49.0578235 283.593754,47 289.000456,47 L288.999113,47 Z M288.999113,51.0588235 C284.734482,51.0588235 280.70364,52.6458235 277.501808,55.5059412 L277.044979,55.9199412 C274.672156,58.1008824 270.953033,61.9405294 265.935978,67.3928823 L264.386791,69.0840588 C263.913809,69.601819 263.913809,70.398181 264.386791,70.9159412 L266.427741,73.1401765 C271.525412,78.6682941 275.233787,82.4673529 277.503151,84.4940589 C280.704983,87.3528235 284.733138,88.9398235 288.997769,88.9398235 C293.235528,88.9398235 297.242185,87.3717647 300.435955,84.5427647 L300.895471,84.1301177 C303.285761,81.9491765 307.022351,78.096 312.058217,72.6165882 L313.614122,70.9159412 C314.086281,70.3983773 314.086281,69.6029756 313.614122,69.0854118 L311.080066,66.3267647 C306.229619,61.0800588 302.682478,57.4555294 300.482982,55.4951177 C297.282493,52.6404118 293.257026,51.0574706 288.997769,51.0574706 L288.999113,51.0588235 Z M289.000456,57.8248824 C295.678974,57.8248824 301.092983,63.2764739 301.092983,70.001353 C301.092983,76.726232 295.678974,82.1778235 289.000456,82.1778235 C282.321939,82.1778235 276.90793,76.726232 276.90793,70.001353 C276.90793,63.2764739 282.321939,57.8248824 289.000456,57.8248824 Z M289.000456,61.8837059 C284.548111,61.8837059 280.938772,65.5181003 280.938772,70.001353 C280.938772,74.4846056 284.548111,78.119 289.000456,78.119 C293.452802,78.119 297.062141,74.4846056 297.062141,70.001353 C297.062141,65.5181003 293.452802,61.8837059 289.000456,61.8837059 Z M289.000456,64.5895883 C291.933751,64.5895883 294.325256,66.9578802 294.374161,69.9111263 C294.423066,72.8643724 292.111304,75.3116317 289.179641,75.4101089 C286.247977,75.5085862 283.779383,73.2219035 283.632718,70.2719412 L283.626,70.001353 L287.656842,70.001353 C288.338021,70.0012625 288.911353,69.4879022 288.991051,68.8067059 L289.000456,68.6484118 L289.000456,64.5895883 Z" id="形状"></path>
        </g>
    </g>
</svg>