<?xml version="1.0" encoding="UTF-8"?>
<svg width="42px" height="42px" viewBox="0 0 42 42" version="1.1" xmlns="http://www.w3.org/2000/svg" xmlns:xlink="http://www.w3.org/1999/xlink">
    <title>密码</title>
    <defs>
        <rect id="path-1" x="0" y="0" width="42" height="42"></rect>
    </defs>
    <g id="页面-3" stroke="none" stroke-width="1" fill="none" fill-rule="evenodd">
        <g id="icon" transform="translate(-105.000000, -51.000000)">
            <g id="形状" transform="translate(105.000000, 51.000000)">
                <mask id="mask-2" fill="white">
                    <use xlink:href="#path-1"></use>
                </mask>
                <use id="蒙版" fill="#transparent" xlink:href="#path-1"></use>
                <path d="M21,0 C28.18,0 34,5.82 34,13 L34,19 C37.3137085,19 40,21.6862915 40,25 L40,36 C40,39.3137085 37.3137085,42 34,42 L8,42 C4.6862915,42 2,39.3137085 2,36 L2,25 C2,21.6862915 4.6862915,19 8,19 L8,13 C8,5.82 13.82,0 21,0 Z M34,22 L8,22 C6.41144237,22 5.09819533,23.2381785 5.00499997,24.824 L5,25 L5,36 C5,37.5885576 6.23817847,38.9018046 7.82399998,38.995 L8,39 L34,39 C35.5885576,39 36.9018046,37.7618215 36.995,36.176 L37,36 L37,25 C37,23.4114424 35.7618215,22.0981954 34.176,22.005 L34,22 Z M22.6,27 C22.82,27 23,27.18 23,27.4 L23,32.6 C23,32.7060866 22.9578573,32.8078282 22.8828427,32.8828427 C22.8078281,32.9578573 22.7060866,33 22.6,33 L20.4,33 C20.1790861,33 20,32.8209139 20,32.6 L20,27.4 C20,27.18 20.18,27 20.4,27 L22.6,27 L22.6,27 Z M21,3 C15.57,3 11.152,7.32699998 11.004,12.72 L11,13 L11,19 L31,19 L31,13 C31,7.56999998 26.673,3.15199997 21.28,3.00399998 L21,3 Z" fill="#367DF3" fill-rule="nonzero" mask="url(#mask-2)"></path>
            </g>
        </g>
    </g>
</svg>