<?xml version="1.0" encoding="UTF-8"?>
<svg width="400px" height="300px" viewBox="0 0 400 300" version="1.1" xmlns="http://www.w3.org/2000/svg" xmlns:xlink="http://www.w3.org/1999/xlink">
    <title>开机</title>
    <g id="页面-3" stroke="none" stroke-width="1" fill="none" fill-rule="evenodd">
        <g id="icon" transform="translate(-2246.000000, -932.000000)">
            <g id="编组" transform="translate(2246.000000, 932.000000)">
                <path d="M299.788347,194.003792 L302.830009,5.93531582 C302.865325,3.75168214 304.645567,2 306.829486,2 L317.769635,2 C319.961486,2 321.745104,3.76396507 321.769389,5.95568153 L323.896604,197.937428 L323.896604,197.937428" id="路径-83" stroke="#979797" stroke-width="3"></path>
                <rect id="矩形" stroke="#979797" stroke-width="3" x="1.5" y="219.502933" width="397" height="78.9970667" rx="39.4985333"></rect>
                <path d="M306.077157,195.503792 C316.279238,195.503792 326.321066,198.041799 335.298005,202.889173 L335.298005,202.889173 L366.06513,219.502826 L33.9348696,219.502826 L64.7019946,202.889173 C73.678934,198.041799 83.7207615,195.503792 93.9228435,195.503792 L93.9228435,195.503792 Z" id="矩形备份" stroke="#979797" stroke-width="3" fill="#1A1A1A"></path>
                <path d="M161.939169,216.508705 L161.09031,219.004702 L161.09031,249.666847 L142.270094,249.666847 L142.270094,219.705246 L144.391497,216.508705 L161.939169,216.508705 Z" id="路径-84" stroke="#979797" stroke-width="3" fill="#1A1A1A"></path>
                <path d="M256.939169,216.508705 L256.09031,219.004702 L256.09031,249.666847 L237.270094,249.666847 L237.270094,219.705246 L239.391497,216.508705 L256.939169,216.508705 Z" id="路径-84备份" stroke="#979797" stroke-width="3" fill="#1A1A1A" transform="translate(247.401883, 233.087776) scale(-1, 1) translate(-247.401883, -233.087776) "></path>
                <polygon id="路径-85" fill="#3ADB83" points="184.011945 219.969741 184.011945 259.885199 217.280585 259.885199 217.280585 219.969741 214.927756 215.008705 186.966482 215.008705"></polygon>
                <line x1="164.033673" y1="188.663445" x2="174.720831" y2="207.503309" id="路径-86" stroke="#3ADB83" stroke-width="3"></line>
                <line x1="214.501359" y1="201.117717" x2="221.969658" y2="176.883259" id="路径-87" stroke="#3ADB83" stroke-width="3"></line>
                <line x1="228.461227" y1="209.662929" x2="238.770094" y2="193.000488" id="路径-88" stroke="#3ADB83" stroke-width="3"></line>
            </g>
        </g>
    </g>
</svg>