<?xml version="1.0" encoding="UTF-8"?>
<svg width="48px" height="48px" viewBox="0 0 48 48" version="1.1" xmlns="http://www.w3.org/2000/svg" xmlns:xlink="http://www.w3.org/1999/xlink">
    <title>扫描</title>
    <g id="页面-3" stroke="none" stroke-width="1" fill="none" fill-rule="evenodd">
        <g id="首页" transform="translate(-102.000000, -883.000000)" fill="#7272E8">
            <g id="编组备份" transform="translate(54.000000, 816.000000)">
                <g id="编组-4" transform="translate(48.000000, 67.000000)">
                    <rect id="矩形" transform="translate(24.000000, 24.000000) rotate(-270.000000) translate(-24.000000, -24.000000) " x="22" y="9" width="4" height="30"></rect>
                    <path d="M0,14 L4,14 L4,10 C4,6.6862915 6.6862915,4 10,4 L14,4 L14,4 L14,9.09494702e-13 L10,9.09494702e-13 C4.4771525,9.10509232e-13 -6.76353751e-16,4.4771525 0,10 L0,14 L0,14 Z" id="路径-89"></path>
                    <path d="M0,48 L4,48 L4,44 C4,40.6862915 6.6862915,38 10,38 L14,38 L14,38 L14,34 L10,34 C4.4771525,34 -6.76353751e-16,38.4771525 0,44 L0,48 L0,48 Z" id="路径-89备份-2" transform="translate(7.000000, 41.000000) scale(1, -1) translate(-7.000000, -41.000000) "></path>
                    <path d="M34,14 L38,14 L38,10 C38,6.6862915 40.6862915,4 44,4 L48,4 L48,4 L48,9.09494702e-13 L44,9.09494702e-13 C38.4771525,9.10509232e-13 34,4.4771525 34,10 L34,14 L34,14 Z" id="路径-89备份" transform="translate(41.000000, 7.000000) scale(-1, 1) translate(-41.000000, -7.000000) "></path>
                    <path d="M34,48 L38,48 L38,44 C38,40.6862915 40.6862915,38 44,38 L48,38 L48,38 L48,34 L44,34 C38.4771525,34 34,38.4771525 34,44 L34,48 L34,48 Z" id="路径-89备份-3" transform="translate(41.000000, 41.000000) scale(-1, -1) translate(-41.000000, -41.000000) "></path>
                </g>
            </g>
        </g>
    </g>
</svg>