<?xml version="1.0" encoding="UTF-8"?>
<svg width="70px" height="70px" viewBox="0 0 70 70" version="1.1" xmlns="http://www.w3.org/2000/svg" xmlns:xlink="http://www.w3.org/1999/xlink">
    <title>设置2</title>
    <g id="页面-2" stroke="none" stroke-width="1" fill="none" fill-rule="evenodd">
        <g id="icon" transform="translate(-320.000000, -139.000000)" stroke="#767D85" stroke-width="4">
            <g id="设置-(1)备份" transform="translate(320.000000, 139.000000)">
                <path d="M44.2425274,4 C46.8246783,4 49.3182872,4.70601885 51.4894695,5.97771638 C53.6662599,7.25269871 55.519383,9.09637919 56.8138008,11.3705622 L56.8138008,11.3705622 L66.0553786,27.6086856 C68.649876,32.1683361 68.6498486,37.8327665 66.0564076,42.3918978 L66.0564076,42.3918978 L56.8128511,58.6304656 C55.5188693,60.9045495 53.6662732,62.7479138 51.4898413,64.0226299 C49.3188007,65.2941883 46.8251181,66 44.2425274,66 L44.2425274,66 L25.7574726,66 C23.1751643,66 20.6813995,65.294116 18.5102102,64.0224705 C16.3337909,62.7477618 14.4810825,60.9044648 13.1870454,58.6302837 L13.1870454,58.6302837 L3.94462144,42.3913144 C1.35012398,37.8316639 1.35015143,32.1672335 3.94359238,27.6081022 L3.94359238,27.6081022 L13.1870769,11.3696609 C14.481123,9.09584904 16.3340329,7.25242469 18.5106815,5.97758172 C20.6817566,4.70600307 23.1753448,4 25.7574726,4 L25.7574726,4 Z" id="形状" fill="currentColor"></path>
                <circle id="椭圆形" cx="35" cy="35" r="12"></circle>
            </g>
        </g>
    </g>
</svg>