<?xml version="1.0" encoding="UTF-8"?>
<svg width="410px" height="233px" viewBox="0 0 410 233" version="1.1" xmlns="http://www.w3.org/2000/svg" xmlns:xlink="http://www.w3.org/1999/xlink">
    <title>Set Hotspot Location</title>
    <g id="页面-3" stroke="none" stroke-width="1" fill="none" fill-rule="evenodd">
        <g id="设置权限" transform="translate(-109.000000, -588.000000)">
            <g id="编组" transform="translate(109.000000, 588.000000)">
                <path d="M30.1766948,184.5 L8.03309886,227.157085 C7.01528485,229.117786 7.77964606,231.53235 9.74034741,232.550164 C10.3096947,232.845716 10.9417742,233 11.5832627,233 L398.246756,233 C400.455895,233 402.246756,231.209139 402.246756,229 C402.246756,228.328068 402.077488,227.666963 401.754576,227.07771 L379.046012,185.638836 L379.046012,185.638836 L30.1766948,184.5 Z" id="路径-52" fill="#367DF3"></path>
                <path d="M324.031191,49.5078177 L407.226411,192.954895 L332.964537,217.286356 L252.979049,189.405071 L199.196553,227.179151 L139.435316,190.662677 L59.8384248,219.358945 L2.99622117,184.426225 L74.4362673,54.6897977 L111.072781,68.5014232 L152.691944,49.78199 L193.321999,63.6523479 L235.356099,49.8068657 L282.368543,66.6253154 L324.031191,49.5078177 Z" id="路径-43" stroke="#979797" stroke-width="3" fill="#1A1A1A"></path>
                <line x1="60.0087855" y1="217.703022" x2="111.123207" y2="70.123485" id="路径-44" stroke="#979797" stroke-width="3"></line>
                <line x1="152.767459" y1="51.3927674" x2="139.603457" y2="189.007555" id="路径-45" stroke="#979797" stroke-width="3"></line>
                <line x1="199.13934" y1="225.386329" x2="193.31347" y2="65.2344342" id="路径-46" stroke="#979797" stroke-width="3"></line>
                <line x1="235.335986" y1="51.3927674" x2="252.74641" y2="187.735459" id="路径-47" stroke="#979797" stroke-width="3"></line>
                <line x1="282.405718" y1="68.2317115" x2="332.979411" y2="215.703022" id="路径-48" stroke="#979797" stroke-width="3"></line>
                <path d="M299.574623,206.469716 C298.935694,190.355508 304.58084,179.599162 316.510062,174.200677 C325.936842,169.934654 343.832675,171.583145 369.636197,170.149132 C374.202746,169.895349 381.53604,168.114957 391.636077,164.807956" id="路径-49" stroke="#979797" stroke-width="3" stroke-dasharray="8,6"></path>
                <path d="M48.6351556,101.231515 C59.4097695,106.384142 70.5458953,107.300379 82.0435329,103.980228 C99.2899893,99 100.692063,89.3576554 120.14776,86.3704006 C139.603457,83.3831459 152.334234,91.7329836 166.607369,84.8388154 C176.122792,80.2427032 183.146137,72.4126929 187.677403,61.3487845" id="路径-50" stroke="#979797" stroke-width="3" stroke-dasharray="8,6"></path>
                <line x1="161.583052" y1="165.631636" x2="184.129033" y2="180.544529" id="路径-51" stroke="#979797" stroke-width="3"></line>
                <line x1="164.758067" y1="162.5" x2="181.758067" y2="184.5" id="路径-51" stroke="#979797" stroke-width="3" transform="translate(173.129033, 173.131636) scale(-1, 1) translate(-173.129033, -173.131636) "></line>
                <g id="编组-5" transform="translate(184.000000, 0.000000)">
                    <circle id="椭圆形" stroke="#367DF3" stroke-width="16" fill="#FFFFFF" cx="27" cy="27" r="19"></circle>
                    <rect id="矩形" fill="#367DF3" x="23" y="50" width="8" height="34"></rect>
                </g>
                <g id="编组-5备份" transform="translate(333.000000, 61.000000)">
                    <circle id="椭圆形" stroke="#367DF3" stroke-width="16" fill="#FFFFFF" cx="27" cy="27" r="19"></circle>
                    <rect id="矩形" fill="#367DF3" x="23" y="50" width="8" height="34"></rect>
                </g>
            </g>
        </g>
    </g>
</svg>