<?xml version="1.0" encoding="UTF-8"?>
<svg width="42px" height="42px" viewBox="0 0 42 42" version="1.1" xmlns="http://www.w3.org/2000/svg" xmlns:xlink="http://www.w3.org/1999/xlink">
    <title>提示</title>
    <g id="页面-3" stroke="none" stroke-width="1" fill="none" fill-rule="evenodd">
        <g id="注意事项" transform="translate(-78.000000, -1321.000000)">
            <g id="编组" transform="translate(78.000000, 1321.000000)">
                <circle id="椭圆形" stroke="#367DF3" stroke-width="3" cx="21" cy="21" r="19.5"></circle>
                <path d="M21,27 C22.1045695,27 23,27.8954305 23,29 C23,30.1045695 22.1045695,31 21,31 C19.8954305,31 19,30.1045695 19,29 C19,27.8954305 19.8954305,27 21,27 Z M21,11 C22.1045695,11 23,11.8954305 23,13 L23,23 C23,24.1045695 22.1045695,25 21,25 C19.8954305,25 19,24.1045695 19,23 L19,13 C19,11.8954305 19.8954305,11 21,11 Z" id="形状结合" fill="#367DF3"></path>
            </g>
        </g>
    </g>
</svg>