<?xml version="1.0" encoding="UTF-8"?>
<svg width="42px" height="42px" viewBox="0 0 42 42" version="1.1" xmlns="http://www.w3.org/2000/svg" xmlns:xlink="http://www.w3.org/1999/xlink">
    <title>好的</title>
    <g id="页面-3" stroke="none" stroke-width="1" fill="none" fill-rule="evenodd">
        <g id="注意事项" transform="translate(-78.000000, -1189.000000)" fill="#367DF3" fill-rule="nonzero">
            <g id="形状备份-2" transform="translate(78.000000, 1189.000000)">
                <path d="M25.2866262,42 C25.7000638,42 26.4271888,41.9120646 26.9836888,41.732252 C29.724189,40.8436895 31.3018141,37.9325643 30.6626265,35.0188142 L30.5970015,34.7458142 L28.1544389,25.5845637 L37.8301893,25.5845637 C39.0048769,25.5845637 40.1664394,25.1488137 40.9539395,24.2773137 C41.8212956,23.3291684 42.1789152,22.0213164 41.9146896,20.763751 L41.8490645,20.496001 L36.7473768,2.33100012 C36.3854417,1.03717062 35.2521055,0.108464544 33.9123766,0.00787500039 L33.6761266,0 L7.87500039,0 L7.87500039,24.6605637 C13.1013756,25.7919388 20.745376,39.6952519 20.745376,39.6952519 C21.832126,41.1691895 23.1498761,42 25.2866262,42 L25.2866262,42 Z M3.93750019,24.9375012 L3.93750019,0 L0,0 L0,24.9375012 L3.93750019,24.9375012 Z M25.2866262,38.0625018 C24.6960012,38.0625018 24.4531887,37.9942519 24.1513137,37.6556268 L24.0463137,37.5322519 L23.5501887,36.6660018 L23.0186261,35.7669392 C21.8082742,33.7346984 20.5112041,31.7553747 19.1310009,29.834439 C17.6229383,27.7475639 16.1411258,25.9494388 14.6868757,24.5148762 C13.7195632,23.5606887 12.7706256,22.7653136 11.8125006,22.1484386 L11.8125006,3.93750019 L33.1091266,3.93750019 L38.0625018,21.5853761 C38.0625018,21.6024385 38.0546268,21.6129386 38.0323144,21.637876 C38.0506894,21.6168761 37.9798144,21.6470635 37.8301893,21.6470635 L23.0291261,21.6470635 L26.7920638,35.7630017 C27.0624388,36.7736268 26.5689388,37.7278143 25.7709388,37.9863769 C25.611577,38.0257836 25.4490897,38.0512545 25.2853137,38.0625018 L25.2866262,38.0625018 Z" id="形状备份" transform="translate(21.000000, 21.000000) scale(1, -1) translate(-21.000000, -21.000000) "></path>
            </g>
        </g>
    </g>
</svg>