<?xml version="1.0" encoding="UTF-8"?>
<svg width="48px" height="48px" viewBox="0 0 48 48" version="1.1" xmlns="http://www.w3.org/2000/svg" xmlns:xlink="http://www.w3.org/1999/xlink">
    <title>wifi</title>
    <g id="页面-3" stroke="none" stroke-width="1" fill="none" fill-rule="evenodd">
        <g id="首页" transform="translate(-102.000000, -648.000000)" fill="#009FFF">
            <g id="编组备份-4" transform="translate(54.000000, 582.000000)">
                <g id="椭圆形-+-椭圆形-+-椭圆形-+-椭圆形-蒙版" transform="translate(48.000000, 66.000000)">
                    <g transform="translate(0.037072, 5.000000)" id="椭圆形">
                        <path d="M23.9629283,32 C25.39759,32 26.7146465,32.503528 27.7470135,33.3434996 L23.9629283,38 L20.1787925,33.3435407 C21.211167,32.5035444 22.5282431,32 23.9629283,32 Z M23.9629283,22 C27.7881925,22 31.2999249,23.34239 34.052742,25.5817867 L31.5300862,28.6861754 C29.4655036,27.0067267 26.8317827,26 23.9629283,26 C21.0940097,26 18.4602353,27.0067716 16.395632,28.6862879 L13.8731145,25.5817867 C16.6259317,23.34239 20.137664,22 23.9629283,22 Z M23.9629283,11 C30.4181563,11 36.3442836,13.2653494 40.989693,17.044431 L38.4668259,20.1486478 C34.5096826,16.9296174 29.4616486,15 23.9629283,15 C18.4637443,15 13.4153227,16.9299428 9.4580298,20.149462 L6.93616347,17.044431 C11.5815729,13.2653494 17.5077002,11 23.9629283,11 Z M23.9629283,0 C33.0477552,0 41.3879726,3.18805283 47.9258565,8.50643472 L45.4039926,11.6114676 C39.5542248,6.85264698 32.0917122,4 23.9629283,4 C15.8341443,4 8.37163176,6.85264698 2.52186394,11.6114676 L2.01172412e-13,8.50643472 C6.53788395,3.18805283 14.8781013,0 23.9629283,0 Z" id="形状结合"></path>
                    </g>
                </g>
            </g>
        </g>
    </g>
</svg>