<?xml version="1.0" encoding="UTF-8"?>
<svg width="70px" height="70px" viewBox="0 0 70 70" version="1.1" xmlns="http://www.w3.org/2000/svg" xmlns:xlink="http://www.w3.org/1999/xlink">
    <title>设置</title>
    <g id="页面-2" stroke="none" stroke-width="1" fill="none" fill-rule="evenodd">
        <g id="icon" transform="translate(-133.000000, -139.000000)" fill="#367DF3" fill-rule="nonzero" stroke="#367DF3" stroke-width="4">
            <g id="设置-(1)" transform="translate(133.000000, 139.000000)">
                <path d="M44.2425274,4 C46.8246783,4 49.3182872,4.70601885 51.4894695,5.97771638 C53.5453271,7.18186636 55.3124814,8.89328105 56.5929316,10.9955415 L56.8138008,11.3705622 L66.0553786,27.6086856 C68.5881023,32.059773 68.6483791,37.563658 66.2372428,42.0643956 L66.0564076,42.3918978 L56.8128511,58.6304656 C55.5188693,60.9045495 53.6662732,62.7479138 51.4898413,64.0226299 C49.446509,65.2193907 47.1173761,65.9150057 44.6973082,65.9927017 L44.2425274,66 L25.7574726,66 C23.1751643,66 20.6813995,65.294116 18.5102102,64.0224705 C16.4547031,62.818579 14.6879381,61.1075207 13.4078508,59.0053006 L13.1870454,58.6302837 L3.94462144,42.3913144 C1.41189772,37.940227 1.35162094,32.436342 3.76275718,27.9356044 L3.94359238,27.6081022 L13.1870769,11.3696609 C14.481123,9.09584904 16.3340329,7.25242469 18.5106815,5.97758172 C20.5540463,4.78080182 22.8830975,4.08501619 25.3027697,4.00730017 L25.7574726,4 L44.2425274,4 Z M35,19 C30.581722,19 26.581722,20.790861 23.6862915,23.6862915 C20.790861,26.581722 19,30.581722 19,35 C19,39.418278 20.790861,43.418278 23.6862915,46.3137085 C26.581722,49.209139 30.581722,51 35,51 C39.418278,51 43.418278,49.209139 46.3137085,46.3137085 C49.209139,43.418278 51,39.418278 51,35 C51,30.581722 49.209139,26.581722 46.3137085,23.6862915 C43.418278,20.790861 39.418278,19 35,19 Z" id="形状结合"></path>
            </g>
        </g>
    </g>
</svg>