<?xml version="1.0" encoding="UTF-8"?>
<svg width="1024px" height="1024px" viewBox="0 0 1024 1024" version="1.1" xmlns="http://www.w3.org/2000/svg" xmlns:xlink="http://www.w3.org/1999/xlink" style="background: #FFFFFF;">
    <title>矩形</title>
    <g id="页面-3" stroke="none" stroke-width="1" fill="none" fill-rule="evenodd">
        <g id="logo1024">
            <rect id="矩形" stroke="#979797" fill="#367DF3" x="0" y="0" width="1024" height="1024"></rect>
            <g id="编组-9" transform="translate(227.000000, 197.000000)" fill="#FFFFFF">
                <path d="M0,181 L190,181 L190,570 L100,570 C44.771525,570 6.76353751e-15,525.228475 0,470 L0,181 L0,181 Z" id="矩形备份-23"></path>
                <path d="M380,0 L570,0 L570,389 L480,389 C424.771525,389 380,344.228475 380,289 L380,0 L380,0 Z" id="矩形备份-25" transform="translate(475.000000, 194.500000) scale(-1, -1) translate(-475.000000, -194.500000) "></path>
                <path d="M210,-20 L210,95 C210,115.485784 218.213118,134.053425 231.526744,147.589105 C244.845077,161.12957 263.266678,169.637272 283.676843,169.988624 L283.676843,169.988624 L285.081013,170 L340,170 C409.035594,170 471.535594,197.982203 516.776695,243.223305 C562.017797,288.464406 590,350.964406 590,420 L590,420 L590,590 L360,590 L360,475 C360,454.514216 351.786882,435.946575 338.473256,422.410895 C325.154923,408.87043 306.733322,400.362728 286.323157,400.011376 L286.323157,400.011376 L284.918987,400 L230,400 C160.964406,400 98.4644063,372.017797 53.2233047,326.776695 C7.98220314,281.535594 -20,219.035594 -20,150 L-20,150 L-20,-20 L210,-20 Z" id="形状结合" stroke="#367DF3" stroke-width="40"></path>
            </g>
            <g id="编组" transform="translate(299.000000, 857.000000)" fill="#FFFFFF">
                <path d="M19.2,57.6 L19.2,96 L0,96 L0,57.6 L19.2,57.6 Z M19.2,0 L19.2,38.4 L74.4,38.4 L74.4,0 L93.6,0 L93.6,38.4 L74.4,57.6 L93.6,57.6 L93.6,96 L74.4,96 L74.4,57.6 L19.2,57.6 L0,38.4 L0,0 L19.2,0 Z M255.6,0 L255.6,76.8 L301.2,76.8 L301.2,96 L255.6,96 L236.4,76.8 L236.4,0 L255.6,0 Z M344.4,0 L344.4,96 L325.2,96 L325.2,19.2 L344.4,0 Z M212.4,76.8 L212.4,96 L145.2,96 L126,76.8 L212.4,76.8 Z M442.8,0 L462,19.2 L462,76.8 L461.999,76.8 L442.8,96 L387.6,96 L368.401,76.8 L368.4,76.8 L368.4,19.2 L387.6,0 L442.8,0 Z M442.8,19.2 L387.599,19.2 L387.599,76.799 L442.8,76.8 L442.8,19.2 Z M212.4,0 L212.4,19.2 L135.6,19.2 L135.6,38.399 L212.4,38.4 L212.4,57.6 L135.6,57.6 L135.599,57.598 L117.6,38.4 L117.6,19.2 L135.599,0.001 L135.6,0 L212.4,0 Z" id="形状结合"></path>
            </g>
        </g>
    </g>
</svg>